<svg width="0" height="0" class="hidden">
  <symbol xmlns="http://www.w3.org/2000/svg" viewBox="0 0 40 28" id="quotes">
    <path d="M8.78049 9.99024C13.6083 9.99024 17.522 13.904 17.522 18.7317C17.522 23.5594 13.6083 27.4732 8.78049 27.4732C3.9527 27.4732 0.0390244 23.5594 0.0390244 18.7317L0 17.4829C0 7.82736 7.82736 0 17.4829 0V4.99512C14.1474 4.99512 11.0114 6.29409 8.65272 8.65272C8.19871 9.10681 7.78435 9.58993 7.41058 10.0974C7.85694 10.0272 8.31438 9.99024 8.78049 9.99024ZM31.2585 9.99024C36.0862 9.99024 40 13.904 40 18.7317C40 23.5594 36.0862 27.4732 31.2585 27.4732C26.4308 27.4732 22.5171 23.5594 22.5171 18.7317L22.478 17.4829C22.478 7.82736 30.3053 0 39.961 0V4.99512C36.6255 4.99512 33.4893 6.29409 31.1308 8.65272C30.6767 9.10681 30.2623 9.58993 29.8885 10.0974C30.3349 10.0272 30.7924 9.99024 31.2585 9.99024Z"></path>
  </symbol>
  <symbol xmlns="http://www.w3.org/2000/svg" viewBox="0 0 8 7" id="check">
    <path d="M1 3.5L3 5.5L7.5 1"></path>
  </symbol>
  <symbol xmlns="http://www.w3.org/2000/svg" viewBox="0 0 20 20" id="mark">
    <g clip-path="url(#clip0_1_2)">
      <path d="M15.0788 5.23114C15.0183 5.00435 14.8954 4.7627 14.8045 4.55112C13.7167 1.9369 11.3399 1.00002 9.42078 1.00002C6.85165 1.00002 4.02206 2.72273 3.64429 6.27364V6.99911C3.64429 7.02938 3.65472 7.30135 3.66954 7.43739C3.88131 9.12967 5.21665 10.9282 6.21393 12.6205C7.28686 14.4336 8.40018 16.2171 9.50319 18C10.1833 16.8365 10.861 15.6578 11.5257 14.5245C11.7068 14.1919 11.9171 13.8595 12.0984 13.542C12.2193 13.3306 12.4502 13.1193 12.5557 12.9226C13.6285 10.9583 15.3555 8.97877 15.3555 7.02934V6.2285C15.3555 6.01716 15.0936 5.27671 15.0788 5.23114ZM9.46781 8.873C8.71262 8.873 7.88601 8.49538 7.478 7.45253C7.41721 7.28653 7.42211 6.95385 7.42211 6.92338V6.45494C7.42211 5.12549 8.55093 4.52093 9.53295 4.52093C10.7419 4.52093 11.677 5.48817 11.677 6.69714C11.677 7.90607 10.6768 8.873 9.46781 8.873Z"></path>
    </g>
    <defs>
      <clipPath id="clip0_1_2">
        <rect width="20" height="20"></rect>
      </clipPath>
    </defs>
  </symbol>
  <symbol xmlns="http://www.w3.org/2000/svg" viewBox="0 0 20 20" id="phone">
    <g clip-path="url(#clip0_1_2)">
      <path d="M15.0788 5.23114C15.0183 5.00435 14.8954 4.7627 14.8045 4.55112C13.7167 1.9369 11.3399 1.00002 9.42078 1.00002C6.85165 1.00002 4.02206 2.72273 3.64429 6.27364V6.99911C3.64429 7.02938 3.65472 7.30135 3.66954 7.43739C3.88131 9.12967 5.21665 10.9282 6.21393 12.6205C7.28686 14.4336 8.40018 16.2171 9.50319 18C10.1833 16.8365 10.861 15.6578 11.5257 14.5245C11.7068 14.1919 11.9171 13.8595 12.0984 13.542C12.2193 13.3306 12.4502 13.1193 12.5557 12.9226C13.6285 10.9583 15.3555 8.97877 15.3555 7.02934V6.2285C15.3555 6.01716 15.0936 5.27671 15.0788 5.23114ZM9.46781 8.873C8.71262 8.873 7.88601 8.49538 7.478 7.45253C7.41721 7.28653 7.42211 6.95385 7.42211 6.92338V6.45494C7.42211 5.12549 8.55093 4.52093 9.53295 4.52093C10.7419 4.52093 11.677 5.48817 11.677 6.69714C11.677 7.90607 10.6768 8.873 9.46781 8.873Z"></path>
    </g>
    <defs>
      <clipPath id="clip0_1_2">
        <rect width="20" height="20"></rect>
      </clipPath>
    </defs>
  </symbol>
</svg>