<svg width="20" height="20" viewBox="0 0 20 20" xmlns="http://www.w3.org/2000/svg">
<g clip-path="url(#clip0_1_2)">
<path d="M15.0788 5.23114C15.0183 5.00435 14.8954 4.7627 14.8045 4.55112C13.7167 1.9369 11.3399 1.00002 9.42078 1.00002C6.85165 1.00002 4.02206 2.72273 3.64429 6.27364V6.99911C3.64429 7.02938 3.65472 7.30135 3.66954 7.43739C3.88131 9.12967 5.21665 10.9282 6.21393 12.6205C7.28686 14.4336 8.40018 16.2171 9.50319 18C10.1833 16.8365 10.861 15.6578 11.5257 14.5245C11.7068 14.1919 11.9171 13.8595 12.0984 13.542C12.2193 13.3306 12.4502 13.1193 12.5557 12.9226C13.6285 10.9583 15.3555 8.97877 15.3555 7.02934V6.2285C15.3555 6.01716 15.0936 5.27671 15.0788 5.23114ZM9.46781 8.873C8.71262 8.873 7.88601 8.49538 7.478 7.45253C7.41721 7.28653 7.42211 6.95385 7.42211 6.92338V6.45494C7.42211 5.12549 8.55093 4.52093 9.53295 4.52093C10.7419 4.52093 11.677 5.48817 11.677 6.69714C11.677 7.90607 10.6768 8.873 9.46781 8.873Z" />
</g>
<defs>
<clipPath id="clip0_1_2">
<rect width="20" height="20" />
</clipPath>
</defs>
</svg>
