<svg width="20" height="20" viewBox="0 0 20 20" xmlns="http://www.w3.org/2000/svg">
<g clip-path="url(#clip0_1_2)">
<path d="M14.9455 13.0686C14.3247 12.4557 13.5498 12.4557 12.9329 13.0686C12.4624 13.5351 11.9919 14.0017 11.5293 14.4762C11.4028 14.6067 11.296 14.6343 11.1418 14.5473C10.8374 14.3813 10.5132 14.2468 10.2206 14.065C8.85648 13.207 7.71381 12.1038 6.70161 10.8623C6.19947 10.2455 5.75268 9.58521 5.44032 8.84187C5.37706 8.69163 5.38892 8.59278 5.51149 8.47021C5.982 8.01551 6.44065 7.54895 6.90326 7.08239C7.54774 6.43395 7.54774 5.67481 6.89931 5.02241C6.53159 4.65075 6.16388 4.28699 5.79617 3.91532C5.4166 3.53575 5.04098 3.15222 4.65745 2.7766C4.03669 2.17166 3.26172 2.17166 2.64492 2.78056C2.17045 3.24712 1.71575 3.72554 1.23338 4.18419C0.786589 4.60725 0.561217 5.12521 0.51377 5.73016C0.438646 6.71468 0.679833 7.64385 1.01987 8.54929C1.71575 10.4234 2.7754 12.088 4.06041 13.6142C5.79617 15.6782 7.86801 17.3111 10.2917 18.4894C11.383 19.0192 12.5138 19.4264 13.7435 19.4937C14.5896 19.5411 15.325 19.3276 15.9142 18.6673C16.3175 18.2166 16.7722 17.8053 17.1992 17.3744C17.8318 16.7338 17.8358 15.9589 17.2071 15.3263C16.4559 14.5711 15.7007 13.8198 14.9455 13.0686Z" >
<path d="M14.1905 9.91851L15.6495 9.66942C15.4202 8.32905 14.7876 7.1152 13.8268 6.15045C12.8106 5.1343 11.5256 4.49377 10.1101 4.29608L9.9045 5.76297C10.9997 5.91717 11.9961 6.41141 12.7829 7.19824C13.5263 7.94157 14.0126 8.88259 14.1905 9.91851Z" />
<path d="M16.4718 3.57613C14.7875 1.89177 12.6563 0.828173 10.3037 0.5L10.0981 1.96689C12.1304 2.25157 13.973 3.17283 15.428 4.62391C16.8079 6.00382 17.7133 7.74748 18.0415 9.66512L19.5005 9.41603C19.117 7.19394 18.0692 5.17745 16.4718 3.57613Z" />
</g>
<defs>
<clipPath id="clip0_1_2">
<rect width="20" height="20" fill="white"/>
</clipPath>
</defs>
</svg>
